<svg width="481" height="252" xmlns="http://www.w3.org/2000/svg"><path d="M93.515 147.687c-.274.55-.594.937-.956 1.162-.362.225-.793.338-1.293.338-.5 0-1.062-.194-1.686-.582a58.075 58.075 0 00-2.213-1.293c-.85-.474-1.842-.905-2.978-1.293-1.138-.387-2.481-.581-4.031-.581-1.4 0-2.617.169-3.654.507-1.038.336-1.912.805-2.623 1.405a5.583 5.583 0 00-1.594 2.156c-.35.837-.525 1.755-.525 2.754 0 1.274.357 2.337 1.069 3.186.713.85 1.654 1.574 2.83 2.175 1.173.599 2.512 1.136 4.009 1.61 1.5.476 3.03.982 4.594 1.52a44.231 44.231 0 014.59 1.874 15.82 15.82 0 014.01 2.698c1.177 1.087 2.12 2.418 2.83 3.992.715 1.574 1.07 3.486 1.07 5.735 0 2.449-.418 4.742-1.255 6.878a15.87 15.87 0 01-3.675 5.585c-1.611 1.588-3.58 2.837-5.903 3.749-2.324.912-4.984 1.368-7.984 1.368-1.724 0-3.424-.17-5.098-.505a26.882 26.882 0 01-4.817-1.444 25.146 25.146 0 01-4.311-2.25 21.302 21.302 0 01-3.58-2.922l2.925-4.836c.274-.35.605-.643.994-.881a2.418 2.418 0 011.293-.356c.623 0 1.299.257 2.025.768a59.561 59.561 0 002.566 1.706c.987.625 2.15 1.193 3.487 1.705 1.337.513 2.94.769 4.815.769 2.874 0 5.1-.681 6.673-2.043 1.575-1.362 2.36-3.317 2.36-5.867 0-1.424-.354-2.586-1.068-3.485-.711-.9-1.654-1.655-2.828-2.268-1.175-.612-2.512-1.13-4.012-1.555a132.222 132.222 0 01-4.572-1.387c-1.55-.5-3.075-1.1-4.573-1.8a14.822 14.822 0 01-4.012-2.736c-1.175-1.124-2.116-2.53-2.83-4.217-.711-1.687-1.07-3.767-1.07-6.24 0-1.975.397-3.9 1.183-5.774a14.761 14.761 0 013.45-4.985c1.51-1.45 3.365-2.611 5.566-3.486 2.198-.875 4.708-1.312 7.534-1.312 3.198 0 6.148.5 8.846 1.5 2.698.999 4.997 2.398 6.896 4.198l-2.474 4.76zm49.201-9.859v8.022H118.69v15.031h18.928v7.76H118.69v15.33h24.026v8.06h-34.185v-54.203zm23.777 25.789h6.298c1.898 0 3.554-.237 4.966-.712 1.412-.474 2.573-1.13 3.487-1.967a7.897 7.897 0 002.041-2.98c.45-1.149.676-2.412.676-3.786 0-2.749-.906-4.86-2.717-6.335-1.813-1.475-4.58-2.212-8.304-2.212h-6.447v17.992zm0 7.234v21.18h-10.082v-54.203h16.53c3.697 0 6.864.382 9.501 1.143 2.636.764 4.8 1.832 6.485 3.206 1.688 1.374 2.924 3.017 3.711 4.93.788 1.911 1.181 4.016 1.181 6.315 0 1.824-.269 3.55-.807 5.173a14.963 14.963 0 01-2.324 4.423c-1.01 1.325-2.26 2.487-3.748 3.486-1.485 1-3.18 1.8-5.079 2.4 1.276.724 2.374 1.76 3.3 3.11l13.568 20.016h-9.07c-.876 0-1.619-.175-2.232-.525-.61-.349-1.13-.849-1.554-1.499l-11.396-17.355c-.424-.649-.893-1.112-1.405-1.387-.513-.274-1.268-.413-2.268-.413h-4.31zm34.924-33.023h8.133c.874 0 1.587.213 2.138.638.547.425.962.974 1.236 1.65l12.744 33.06a44.687 44.687 0 011.218 3.541 81.56 81.56 0 011.106 4.068c.576-2.873 1.287-5.41 2.136-7.61l12.707-33.06c.226-.575.626-1.1 1.201-1.575.573-.473 1.286-.712 2.136-.712h8.134l-21.889 54.202h-9.11l-21.89-54.202zm62.33 54.202h10.12v-54.202h-10.12zm62.415-12.782c.548 0 1.025.212 1.424.637l3.972 4.31a21.815 21.815 0 01-8.113 6.261c-3.213 1.45-7.066 2.173-11.565 2.173-4.023 0-7.641-.686-10.852-2.06-3.211-1.376-5.953-3.286-8.227-5.736-2.274-2.449-4.018-5.373-5.23-8.772-1.211-3.397-1.817-7.108-1.817-11.132 0-4.073.676-7.803 2.025-11.189 1.349-3.386 3.248-6.303 5.698-8.752 2.447-2.449 5.377-4.354 8.789-5.717 3.412-1.362 7.177-2.042 11.302-2.042 4.022 0 7.538.643 10.55 1.93 3.013 1.288 5.592 2.993 7.742 5.117l-3.374 4.685c-.201.3-.456.562-.77.787-.312.226-.742.337-1.293.337-.575 0-1.16-.224-1.761-.674-.6-.45-1.362-.937-2.286-1.462-.925-.525-2.094-1.013-3.506-1.462-1.412-.45-3.204-.675-5.378-.675-2.55 0-4.892.445-7.028 1.332-2.138.886-3.974 2.154-5.51 3.803-1.537 1.65-2.738 3.655-3.6 6.017-.861 2.362-1.292 5.017-1.292 7.965 0 3.05.43 5.76 1.293 8.134.86 2.374 2.03 4.373 3.505 5.997a14.956 14.956 0 005.21 3.73c1.998.862 4.149 1.293 6.448 1.293 1.374 0 2.616-.075 3.729-.225a15.692 15.692 0 003.073-.712 13.623 13.623 0 002.663-1.256 16.536 16.536 0 002.49-1.893 3.52 3.52 0 01.79-.543 1.98 1.98 0 01.899-.206m50.841-41.42v8.022h-24.026v15.031h18.928v7.76h-18.928v15.33h24.026v8.06h-34.185v-54.203zm41.517 9.859c-.273.55-.593.937-.955 1.162-.362.225-.793.338-1.293.338-.5 0-1.062-.194-1.686-.582a58.754 58.754 0 00-2.212-1.293c-.85-.474-1.843-.905-2.98-1.293-1.137-.387-2.48-.581-4.03-.581-1.4 0-2.617.169-3.654.507-1.038.336-1.912.805-2.623 1.405a5.593 5.593 0 00-1.594 2.156c-.35.837-.525 1.755-.525 2.754 0 1.274.358 2.337 1.069 3.186.713.85 1.654 1.574 2.83 2.175 1.173.599 2.512 1.136 4.01 1.61 1.499.476 3.03.982 4.593 1.52a44.338 44.338 0 014.592 1.874 15.876 15.876 0 014.009 2.698c1.176 1.087 2.119 2.418 2.83 3.992.714 1.574 1.069 3.486 1.069 5.735 0 2.449-.418 4.742-1.255 6.878a15.87 15.87 0 01-3.675 5.585c-1.611 1.588-3.58 2.837-5.903 3.749-2.324.912-4.984 1.368-7.984 1.368-1.723 0-3.424-.17-5.097-.505a26.868 26.868 0 01-4.818-1.444 25.146 25.146 0 01-4.311-2.25 21.302 21.302 0 01-3.58-2.922l2.926-4.836c.274-.35.604-.643.993-.881a2.418 2.418 0 011.293-.356c.623 0 1.299.257 2.025.768a59.561 59.561 0 002.566 1.706c.987.625 2.15 1.193 3.487 1.705 1.337.513 2.94.769 4.815.769 2.874 0 5.1-.681 6.673-2.043 1.575-1.362 2.36-3.317 2.36-5.867 0-1.424-.354-2.586-1.068-3.485-.711-.9-1.654-1.655-2.827-2.268-1.176-.612-2.513-1.13-4.012-1.555-1.5-.425-3.025-.887-4.573-1.387-1.55-.5-3.075-1.1-4.572-1.8a14.791 14.791 0 01-4.012-2.736c-1.176-1.124-2.117-2.53-2.83-4.217-.712-1.687-1.07-3.767-1.07-6.24 0-1.975.396-3.9 1.183-5.774a14.744 14.744 0 013.449-4.985c1.51-1.45 3.365-2.611 5.566-3.486 2.198-.875 4.708-1.312 7.534-1.312 3.198 0 6.148.5 8.846 1.5 2.699.999 4.997 2.398 6.897 4.198l-2.475 4.76zM81.02 77.692a12.555 12.555 0 014.423-3.152c1.734-.739 3.684-1.114 5.799-1.114 1.232 0 2.318.093 3.222.274.913.185 1.713.41 2.373.667.659.26 1.223.533 1.675.817l1.513.956a16.06 16.06 0 001.473.846c1.608.81 3.613.587 4.786-.312a7.429 7.429 0 001.343-1.328l5.286-7.09-1.021-1.073a23.66 23.66 0 00-3.923-3.28 26.547 26.547 0 00-4.796-2.52 31.128 31.128 0 00-5.545-1.64c-1.971-.394-4.094-.594-6.308-.594-4.546 0-8.775.755-12.571 2.245-3.807 1.496-7.13 3.626-9.875 6.328-2.744 2.704-4.91 5.96-6.434 9.676-1.521 3.71-2.292 7.825-2.292 12.23 0 4.3.67 8.35 1.994 12.04 1.336 3.718 3.283 6.984 5.786 9.704 2.512 2.731 5.609 4.9 9.207 6.447 3.589 1.54 7.686 2.322 12.177 2.322 4.882 0 9.193-.809 12.81-2.408a23.298 23.298 0 009.199-7.237l.909-1.188-6.238-6.562a4.303 4.303 0 00-1.513-1.002 4.368 4.368 0 00-3.396.133 6.495 6.495 0 00-1.417.902 13.897 13.897 0 01-2.041 1.496c-.647.386-1.342.704-2.062.95-.713.241-1.507.414-2.365.515a25.51 25.51 0 01-3.036.163c-1.803 0-3.514-.352-5.081-1.046a11.988 11.988 0 01-4.126-3.05c-1.195-1.355-2.16-3.063-2.864-5.078-.717-2.04-1.08-4.429-1.08-7.102 0-2.543.363-4.852 1.078-6.865.702-1.985 1.689-3.689 2.93-5.07m59.113-17.924h-16.555v59.756h37.402v-13.93h-20.847zm71.981 29.859c0 2.61-.335 4.966-.995 7.005-.646 1.99-1.574 3.69-2.758 5.042-1.17 1.335-2.622 2.366-4.315 3.07-1.732.718-3.753 1.082-6.008 1.082-2.28 0-4.324-.366-6.069-1.084-1.706-.704-3.163-1.735-4.329-3.066-1.189-1.359-2.117-3.056-2.76-5.044-.66-2.037-.996-4.392-.996-7.005 0-2.585.335-4.93.997-6.97.642-1.987 1.57-3.683 2.758-5.04 1.17-1.335 2.63-2.374 4.34-3.09 1.744-.73 3.782-1.1 6.06-1.1 2.25 0 4.267.368 5.998 1.1 1.697.714 3.152 1.753 4.322 3.087 1.186 1.356 2.114 3.055 2.76 5.043.66 2.042.995 4.388.995 6.97m8.327-21.656c-2.704-2.73-5.996-4.908-9.786-6.47-3.785-1.56-8.03-2.352-12.617-2.352-4.58 0-8.83.784-12.629 2.331-3.808 1.55-7.115 3.72-9.829 6.448-2.716 2.732-4.847 5.994-6.33 9.696-1.48 3.69-2.229 7.73-2.229 12.003 0 4.272.75 8.311 2.23 12.001 1.481 3.702 3.611 6.968 6.326 9.713 2.717 2.743 6.025 4.92 9.831 6.468 3.796 1.55 8.045 2.333 12.63 2.333 4.586 0 8.83-.784 12.612-2.333 3.794-1.55 7.09-3.727 9.794-6.472 2.701-2.743 4.823-6.009 6.304-9.709 1.48-3.69 2.23-7.729 2.23-12 0-4.248-.75-8.275-2.23-11.965-1.483-3.702-3.606-6.963-6.307-9.692m53.597 26.868c0 1.79-.225 3.395-.667 4.77-.426 1.32-1.042 2.443-1.829 3.334a7.65 7.65 0 01-2.859 2.035c-2.305.97-5.719.97-8.023 0a7.563 7.563 0 01-2.85-2.044c-.79-.907-1.408-2.04-1.835-3.362-.444-1.377-.669-2.984-.669-4.772V59.768H238.75v35.07c0 3.649.598 7.055 1.776 10.127 1.19 3.097 2.934 5.81 5.185 8.063 2.252 2.25 5.014 4.019 8.211 5.259 3.176 1.23 6.792 1.855 10.75 1.855 3.93 0 7.532-.624 10.71-1.855 3.198-1.24 5.961-3.01 8.212-5.26 2.25-2.251 4-4.963 5.201-8.056 1.193-3.074 1.798-6.482 1.798-10.132V59.768h-16.556v35.07zm66.557-5.212c0 2.607-.335 4.972-.997 7.031-.644 2-1.573 3.71-2.762 5.081a11.771 11.771 0 01-4.326 3.126c-1.729.74-3.745 1.115-5.99 1.115h-7.97V73.311h7.97c2.245 0 4.261.376 5.99 1.113 1.701.73 3.158 1.782 4.326 3.13 1.19 1.37 2.118 3.078 2.762 5.08.662 2.057.997 4.411.997 6.993m14.63-11.878c-1.487-3.64-3.613-6.834-6.322-9.49-2.707-2.65-6-4.752-9.79-6.245-3.78-1.49-8.018-2.246-12.593-2.246h-4.569c-11.064 0-20.033 8.97-20.033 20.033v39.722h24.602c4.575 0 8.81-.747 12.587-2.223 3.795-1.483 7.092-3.586 9.8-6.253 2.706-2.667 4.832-5.863 6.318-9.503 1.483-3.632 2.235-7.64 2.235-11.917 0-4.25-.752-8.249-2.235-11.878" fill="#009FE3" fill-rule="evenodd"/></svg>