<?xml version="1.0" encoding="utf-8"?>
<!-- Generator: Adobe Illustrator 23.0.0, SVG Export Plug-In . SVG Version: 6.00 Build 0)  -->
<svg version="1.1" id="Capa_1" xmlns="http://www.w3.org/2000/svg" xmlns:xlink="http://www.w3.org/1999/xlink" x="0px" y="0px"
	 viewBox="0 0 134.5 70" style="enable-background:new 0 0 134.5 70;" xml:space="preserve">
<style type="text/css">
	.st0{fill-rule:evenodd;clip-rule:evenodd;fill:#FFFFFF;}
	.st1{fill:#BB1817;}
	.st2{fill:#1D1D1B;}
</style>
<g>
	<path class="st0" d="M18,0c10,0,18,8.1,18,18c0,10-8.1,18-18,18S0,28,0,18C0,8.1,8.1,0,18,0"/>
	<path class="st1" d="M7.7,24.5L7.7,24.5L10,11.8c0.1-0.6,0.4-1.2,1-1.2c0.6,0,0.7,0.6,0.6,1.2L9.4,24.5c-0.1,0.6-0.4,1.2-1,1.2
		C7.7,25.7,7.6,25,7.7,24.5 M2.9,27.9C1.1,25,0,21.7,0,18C0,9.6,5.8,2.5,13.6,0.5l-1.4,8.2h-0.1c-0.2-1.3-1.2-2.3-2.5-2.3
		c-2.9,0-3.7,2.4-4.1,5L3.1,24.7C2.9,25.8,2.8,27,2.9,27.9z M13.7,35.5c-3.8-0.9-7.1-3-9.5-5.9c0.3,0.1,0.7,0.2,1.2,0.2
		c1.4,0,2.7-1.1,3.4-2.7h0.1l-0.4,2.4h4.6L18.3,0c-0.1,0-0.1,0-0.2,0c5.5,0,10.5,2.6,13.8,6.5c-1.6,0.1-2.3,0.9-3.3,2.3
		c-0.2-1.8-0.9-2.3-2.6-2.3c-1.9,0-2.5,0.8-3.5,2.3h-0.1l0.4-2h-4.6l-5.1,28.6C13.4,35.5,13.5,35.5,13.7,35.5z M14.1,35.6
		c-0.1,0-0.2-0.1-0.3-0.1C13.9,35.6,14,35.6,14.1,35.6z M14.5,35.7c-0.1,0-0.2,0-0.3-0.1C14.4,35.7,14.5,35.7,14.5,35.7z M36.1,18
		c0,10-8.1,18-18,18c-0.4,0-0.7,0-1.1,0c0.2,0,0.5,0,0.7,0L22,11.8c0.1-0.6,0.4-1.2,1-1.2c0.6,0,0.7,0.6,0.6,1.2l-3.1,17.7h4.6
		l3.1-17.7c0.1-0.6,0.4-1.2,1-1.2c0.6,0,0.7,0.6,0.6,1.2l-3.1,17.7h4.6L34.6,11C35.5,13.1,36.1,15.5,36.1,18z"/>
	<path class="st2" d="M122.4,58.8L122.4,58.8l2.4-13.7c2.1,0,1.8,1.4,1.5,3.2l-1.2,6.7c-0.4,2-0.2,3,0.1,3.8h5.9
		c-0.1-1.2-0.5-2.3,0.1-5.2l1-5.8c0.6-3.3,0-4.7-3.6-4.9l0-0.1c3.5-0.2,4.9-2.6,5.3-4.8l0.5-2.6c0.8-4.5-2.2-5.9-5.8-5.9h-6.8
		l-5.2,29.3H122.4z M126.8,33.7L126.8,33.7h0.7c0.9,0,1.3,0.5,1,1.8l-0.8,4.3c-0.2,1.4-0.7,1.9-1.7,1.9h-0.7L126.8,33.7z
		 M104.6,58.8L104.6,58.8l5.2-29.3h10.9l-0.7,4.2h-5.1l-1.2,6.7h4.9l-0.7,4.2h-4.9l-1.8,10h5.1l-0.7,4.2H104.6z M98.6,58.8
		L98.6,58.8h-5.8l4.4-25.1h-3.9l0.7-4.2h13.6l-0.7,4.2H103L98.6,58.8z M74.6,58.8L74.6,58.8h5.2l2.3-8h2.8l-0.7,8h6l1.7-29.3h-7.7
		L74.6,58.8z M83.3,46.6L83.3,46.6l3.1-12h0.2l-1.3,12H83.3z M50.7,58.8L50.7,58.8l5.2-29.3h8.9l-1,19.6h0.1l6.3-19.6h8.1l-5.2,29.3
		H68l3.8-21.5l-0.1-0.1l-7.3,21.5h-5l0.4-21.1h-0.1L56,58.8H50.7z M43.4,58.8L43.4,58.8l5.2-29.3h5.8l-5.2,29.3H43.4z M27.9,58.8
		L27.9,58.8h6.8c3.6,0,7.1-1.4,7.8-5.3l3.3-18.6c0.7-3.9-2.3-5.3-5.9-5.3H33L27.9,58.8z M38.1,33.7h1c0.9,0,0.8,1.1,0.7,1.9l-3,17
		c-0.1,0.8-0.5,1.9-1.4,1.9h-1L38.1,33.7z"/>
	<path class="st2" d="M116.5,66.8c0,0.4,0.1,0.6,0.2,0.8c0.2,0.2,0.4,0.4,0.6,0.4c0.2,0,0.4-0.1,0.5-0.3c0.2-0.2,0.2-0.5,0.2-0.8
		c0-0.4-0.1-0.7-0.2-0.9c-0.1-0.2-0.3-0.3-0.6-0.3c-0.2,0-0.4,0.1-0.6,0.3C116.6,66.1,116.5,66.4,116.5,66.8 M119,68.6h-0.9v-0.5
		c-0.1,0.2-0.3,0.4-0.5,0.5c-0.2,0.1-0.4,0.2-0.6,0.2c-0.4,0-0.8-0.2-1-0.5c-0.3-0.3-0.4-0.8-0.4-1.4c0-0.6,0.1-1,0.4-1.4
		c0.3-0.3,0.6-0.5,1.1-0.5c0.4,0,0.7,0.2,1,0.5v-1.7h0.9V68.6z M114,66.9c-0.1,0-0.3,0.1-0.6,0.1c-0.3,0.1-0.4,0.1-0.5,0.2
		c-0.1,0.1-0.2,0.2-0.2,0.3c0,0.1,0,0.2,0.1,0.3c0.1,0.1,0.2,0.1,0.4,0.1c0.2,0,0.3-0.1,0.5-0.2c0.1-0.1,0.2-0.2,0.2-0.3
		c0-0.1,0-0.2,0-0.5V66.9z M112.7,66.1l-0.8-0.1c0.1-0.3,0.3-0.6,0.5-0.8c0.2-0.2,0.6-0.2,1-0.2c0.4,0,0.7,0,0.9,0.1
		c0.2,0.1,0.3,0.2,0.4,0.4c0.1,0.2,0.1,0.4,0.1,0.8l0,1.1c0,0.3,0,0.5,0,0.7c0,0.1,0.1,0.3,0.2,0.5h-0.9c0-0.1-0.1-0.2-0.1-0.3
		c0-0.1,0-0.1,0-0.1c-0.2,0.2-0.3,0.3-0.5,0.3c-0.2,0.1-0.4,0.1-0.6,0.1c-0.4,0-0.6-0.1-0.9-0.3c-0.2-0.2-0.3-0.4-0.3-0.7
		c0-0.2,0-0.4,0.1-0.5c0.1-0.2,0.2-0.3,0.4-0.4c0.2-0.1,0.4-0.2,0.7-0.2c0.4-0.1,0.7-0.2,0.9-0.2v-0.1c0-0.2,0-0.3-0.1-0.4
		c-0.1-0.1-0.3-0.1-0.5-0.1c-0.2,0-0.3,0-0.4,0.1C112.8,65.9,112.8,66,112.7,66.1z M108.6,66.8c0,0.4,0.1,0.6,0.2,0.8
		c0.2,0.2,0.4,0.4,0.6,0.4c0.2,0,0.4-0.1,0.5-0.3c0.2-0.2,0.2-0.5,0.2-0.8c0-0.4-0.1-0.7-0.2-0.9c-0.1-0.2-0.3-0.3-0.6-0.3
		c-0.2,0-0.4,0.1-0.6,0.3C108.7,66.1,108.6,66.4,108.6,66.8z M111.1,68.6h-0.9v-0.5c-0.1,0.2-0.3,0.4-0.5,0.5
		c-0.2,0.1-0.4,0.2-0.6,0.2c-0.4,0-0.8-0.2-1-0.5c-0.3-0.3-0.4-0.8-0.4-1.4c0-0.6,0.1-1,0.4-1.4c0.3-0.3,0.6-0.5,1.1-0.5
		c0.4,0,0.7,0.2,1,0.5v-1.7h0.9V68.6z M106,68.6v-3.5h0.9v3.5H106z M106,64.6v-0.9h0.9v0.9H106z M104.3,68.6h-0.9v-3.5h0.9v0.5
		c0.1-0.2,0.3-0.4,0.4-0.5c0.1-0.1,0.3-0.1,0.4-0.1c0.2,0,0.4,0.1,0.6,0.2l-0.3,0.8c-0.2-0.1-0.3-0.2-0.4-0.2c-0.1,0-0.2,0-0.3,0.1
		c-0.1,0.1-0.2,0.2-0.2,0.4c-0.1,0.2-0.1,0.6-0.1,1.2V68.6z M101.6,68.6v-0.5c-0.1,0.2-0.3,0.3-0.5,0.4c-0.2,0.1-0.4,0.2-0.7,0.2
		c-0.2,0-0.4-0.1-0.6-0.2c-0.2-0.1-0.3-0.3-0.4-0.4c-0.1-0.2-0.1-0.4-0.1-0.8v-2.2h0.9v1.6c0,0.5,0,0.8,0.1,0.9
		c0,0.1,0.1,0.2,0.2,0.3c0.1,0.1,0.2,0.1,0.3,0.1c0.2,0,0.3,0,0.4-0.1c0.1-0.1,0.2-0.2,0.3-0.3c0-0.1,0.1-0.4,0.1-1v-1.5h0.9v3.5
		H101.6z M95.8,66.8c0,0.4,0.1,0.6,0.2,0.8c0.1,0.2,0.3,0.3,0.5,0.3c0.2,0,0.4-0.1,0.6-0.3c0.2-0.2,0.2-0.4,0.2-0.8
		c0-0.4-0.1-0.6-0.2-0.8c-0.1-0.2-0.3-0.3-0.6-0.3c-0.2,0-0.4,0.1-0.5,0.3C95.9,66.1,95.8,66.4,95.8,66.8z M95,68.8l1.1,0.1
		c0,0.1,0.1,0.2,0.1,0.3c0.1,0.1,0.2,0.1,0.4,0.1c0.2,0,0.4,0,0.5-0.1c0.1,0,0.1-0.1,0.2-0.2c0-0.1,0-0.2,0-0.4l0-0.5
		c-0.3,0.4-0.6,0.6-1.1,0.6c-0.5,0-0.8-0.2-1.1-0.6c-0.2-0.3-0.3-0.7-0.3-1.2c0-0.6,0.1-1,0.4-1.3c0.3-0.3,0.6-0.5,1.1-0.5
		c0.4,0,0.8,0.2,1.1,0.6v-0.5h0.9v3.2c0,0.4,0,0.7-0.1,0.9c-0.1,0.2-0.2,0.4-0.3,0.5c-0.1,0.1-0.3,0.2-0.5,0.3
		C97.2,70,97,70,96.7,70c-0.6,0-1-0.1-1.3-0.3c-0.2-0.2-0.4-0.5-0.4-0.8C95,68.9,95,68.8,95,68.8z M93.4,66.5c0-0.3-0.1-0.5-0.2-0.6
		c-0.1-0.1-0.3-0.2-0.5-0.2c-0.2,0-0.4,0.1-0.5,0.2c-0.1,0.1-0.2,0.3-0.2,0.6H93.4z M93.4,67.5l0.9,0.2c-0.1,0.3-0.3,0.6-0.6,0.8
		c-0.3,0.2-0.6,0.3-1,0.3c-0.6,0-1.1-0.2-1.4-0.6c-0.2-0.3-0.3-0.7-0.3-1.2c0-0.6,0.2-1,0.5-1.4c0.3-0.3,0.7-0.5,1.2-0.5
		c0.5,0,0.9,0.2,1.2,0.5c0.3,0.3,0.4,0.9,0.4,1.6H92c0,0.3,0.1,0.5,0.2,0.6c0.1,0.2,0.3,0.2,0.5,0.2c0.1,0,0.3,0,0.4-0.1
		C93.2,67.8,93.3,67.6,93.4,67.5z M86.6,67l1-0.1c0.1,0.3,0.2,0.6,0.3,0.7c0.2,0.2,0.4,0.2,0.7,0.2c0.3,0,0.6-0.1,0.7-0.2
		c0.2-0.1,0.2-0.3,0.2-0.5c0-0.1,0-0.2-0.1-0.3c-0.1-0.1-0.2-0.2-0.4-0.2c-0.1,0-0.4-0.1-0.8-0.2c-0.5-0.1-0.9-0.3-1.1-0.5
		c-0.3-0.3-0.4-0.6-0.4-1c0-0.2,0.1-0.5,0.2-0.7c0.1-0.2,0.3-0.4,0.6-0.5c0.3-0.1,0.6-0.2,1-0.2c0.6,0,1.1,0.1,1.4,0.4
		c0.3,0.3,0.5,0.6,0.5,1.1l-1,0c0-0.3-0.1-0.4-0.3-0.5c-0.1-0.1-0.3-0.2-0.6-0.2c-0.3,0-0.5,0.1-0.7,0.2c-0.1,0.1-0.2,0.2-0.2,0.3
		c0,0.1,0,0.2,0.1,0.3c0.1,0.1,0.4,0.2,0.9,0.3c0.5,0.1,0.8,0.2,1.1,0.3c0.2,0.1,0.4,0.3,0.5,0.5c0.1,0.2,0.2,0.5,0.2,0.8
		c0,0.3-0.1,0.5-0.2,0.8c-0.2,0.2-0.4,0.4-0.7,0.5c-0.3,0.1-0.6,0.2-1.1,0.2c-0.6,0-1.1-0.1-1.4-0.4C86.8,68,86.6,67.5,86.6,67z
		 M80.8,67.6l0.9-0.1c0,0.2,0.1,0.3,0.2,0.4c0.1,0.1,0.3,0.1,0.5,0.1c0.2,0,0.4,0,0.5-0.1c0.1-0.1,0.1-0.1,0.1-0.2
		c0-0.1,0-0.1-0.1-0.2c0,0-0.2-0.1-0.3-0.1c-0.8-0.2-1.2-0.3-1.4-0.5c-0.3-0.2-0.4-0.5-0.4-0.8c0-0.3,0.1-0.6,0.4-0.8
		c0.2-0.2,0.6-0.3,1.1-0.3c0.5,0,0.8,0.1,1.1,0.2c0.2,0.2,0.4,0.4,0.5,0.7l-0.9,0.2c0-0.1-0.1-0.2-0.2-0.3c-0.1-0.1-0.3-0.1-0.5-0.1
		c-0.2,0-0.4,0-0.5,0.1c-0.1,0-0.1,0.1-0.1,0.2c0,0.1,0,0.1,0.1,0.2c0.1,0.1,0.4,0.1,0.9,0.3c0.5,0.1,0.8,0.3,1,0.4
		c0.2,0.2,0.3,0.4,0.3,0.7c0,0.3-0.1,0.6-0.4,0.8c-0.3,0.2-0.7,0.3-1.2,0.3c-0.5,0-0.9-0.1-1.1-0.3C81.1,68.2,80.9,67.9,80.8,67.6z
		 M77.8,66.8c0,0.3,0.1,0.6,0.2,0.8c0.2,0.2,0.4,0.3,0.6,0.3c0.2,0,0.4-0.1,0.6-0.3c0.2-0.2,0.2-0.5,0.2-0.8c0-0.3-0.1-0.6-0.2-0.8
		c-0.2-0.2-0.4-0.3-0.6-0.3c-0.2,0-0.4,0.1-0.6,0.3C77.9,66.2,77.8,66.5,77.8,66.8z M76.8,66.8c0-0.3,0.1-0.6,0.2-0.9
		c0.2-0.3,0.4-0.5,0.6-0.7c0.3-0.2,0.6-0.2,0.9-0.2c0.5,0,1,0.2,1.3,0.5c0.3,0.3,0.5,0.8,0.5,1.3c0,0.5-0.2,1-0.5,1.3
		c-0.3,0.3-0.8,0.5-1.3,0.5c-0.3,0-0.6-0.1-0.9-0.2c-0.3-0.1-0.5-0.4-0.7-0.6C76.9,67.5,76.8,67.2,76.8,66.8z M71,65.1h0.9v0.5
		c0.3-0.4,0.7-0.6,1.1-0.6c0.2,0,0.4,0,0.6,0.1c0.2,0.1,0.3,0.2,0.4,0.4c0.2-0.2,0.3-0.3,0.5-0.4C74.6,65,74.8,65,75,65
		c0.3,0,0.5,0.1,0.7,0.2c0.2,0.1,0.3,0.3,0.4,0.5c0.1,0.1,0.1,0.4,0.1,0.7v2.2h-0.9v-2c0-0.3,0-0.6-0.1-0.7
		c-0.1-0.1-0.2-0.2-0.4-0.2c-0.1,0-0.3,0-0.4,0.1c-0.1,0.1-0.2,0.2-0.2,0.3C74,66.3,74,66.6,74,66.9v1.7h-0.9v-1.9
		c0-0.3,0-0.6,0-0.7c0-0.1-0.1-0.2-0.2-0.2c-0.1,0-0.2-0.1-0.3-0.1c-0.1,0-0.3,0-0.4,0.1C72.1,65.9,72,66,72,66.1
		c0,0.1-0.1,0.4-0.1,0.7v1.7H71V65.1z M69.1,68.6v-3.5h0.9v3.5H69.1z M69.1,64.6v-0.9h0.9v0.9H69.1z M67.3,68.6v-0.5
		c-0.1,0.2-0.3,0.3-0.5,0.4c-0.2,0.1-0.4,0.2-0.7,0.2c-0.2,0-0.4-0.1-0.6-0.2c-0.2-0.1-0.3-0.3-0.4-0.4C65,67.9,65,67.6,65,67.3
		v-2.2h0.9v1.6c0,0.5,0,0.8,0.1,0.9c0,0.1,0.1,0.2,0.2,0.3c0.1,0.1,0.2,0.1,0.3,0.1c0.2,0,0.3,0,0.4-0.1c0.1-0.1,0.2-0.2,0.3-0.3
		c0-0.1,0.1-0.4,0.1-1v-1.5h0.9v3.5H67.3z M61.7,66.8c0,0.4,0.1,0.6,0.2,0.8c0.2,0.2,0.4,0.4,0.6,0.4c0.2,0,0.4-0.1,0.5-0.3
		c0.1-0.2,0.2-0.5,0.2-0.8c0-0.4-0.1-0.7-0.2-0.9c-0.1-0.2-0.3-0.3-0.6-0.3c-0.2,0-0.4,0.1-0.6,0.3C61.8,66.1,61.7,66.4,61.7,66.8z
		 M60.8,68.6v-4.8h0.9v1.7c0.3-0.3,0.6-0.5,1-0.5c0.4,0,0.8,0.2,1.1,0.5c0.3,0.3,0.4,0.8,0.4,1.3c0,0.6-0.1,1.1-0.4,1.4
		c-0.3,0.3-0.6,0.5-1,0.5c-0.2,0-0.4-0.1-0.6-0.2c-0.2-0.1-0.4-0.3-0.5-0.4v0.5H60.8z M59,68.6v-3.5h0.9v3.5H59z M59,64.6v-0.9h0.9
		v0.9H59z M57.2,68.6h-0.9v-3.5h0.9v0.5c0.1-0.2,0.3-0.4,0.4-0.5C57.7,65,57.8,65,58,65c0.2,0,0.4,0.1,0.6,0.2L58.3,66
		c-0.2-0.1-0.3-0.2-0.4-0.2c-0.1,0-0.2,0-0.3,0.1c-0.1,0.1-0.2,0.2-0.2,0.4c-0.1,0.2-0.1,0.6-0.1,1.2V68.6z M55.7,65.1v0.7h-0.6v1.4
		c0,0.3,0,0.5,0,0.5c0,0,0,0.1,0.1,0.1c0,0,0.1,0,0.2,0c0.1,0,0.2,0,0.4-0.1l0.1,0.7c-0.2,0.1-0.5,0.1-0.7,0.1c-0.2,0-0.3,0-0.5-0.1
		c-0.1-0.1-0.2-0.1-0.3-0.2c-0.1-0.1-0.1-0.2-0.1-0.4c0-0.1,0-0.3,0-0.7v-1.5h-0.4v-0.7h0.4v-0.7l0.9-0.5v1.2H55.7z M50,67.6
		l0.9-0.1c0,0.2,0.1,0.3,0.2,0.4c0.1,0.1,0.3,0.1,0.5,0.1c0.2,0,0.4,0,0.5-0.1c0.1-0.1,0.1-0.1,0.1-0.2c0-0.1,0-0.1-0.1-0.2
		c0,0-0.2-0.1-0.3-0.1c-0.8-0.2-1.2-0.3-1.4-0.5c-0.3-0.2-0.4-0.5-0.4-0.8c0-0.3,0.1-0.6,0.4-0.8c0.2-0.2,0.6-0.3,1.1-0.3
		c0.5,0,0.8,0.1,1.1,0.2c0.2,0.2,0.4,0.4,0.5,0.7l-0.9,0.2c0-0.1-0.1-0.2-0.2-0.3c-0.1-0.1-0.3-0.1-0.5-0.1c-0.2,0-0.4,0-0.5,0.1
		C51,65.8,51,65.9,51,66c0,0.1,0,0.1,0.1,0.2c0.1,0.1,0.4,0.1,0.9,0.3c0.5,0.1,0.8,0.3,1,0.4c0.2,0.2,0.3,0.4,0.3,0.7
		c0,0.3-0.1,0.6-0.4,0.8c-0.3,0.2-0.7,0.3-1.2,0.3c-0.5,0-0.9-0.1-1.1-0.3C50.3,68.2,50.1,67.9,50,67.6z M48.4,68.6v-3.5h0.9v3.5
		H48.4z M48.4,64.6v-0.9h0.9v0.9H48.4z M44.5,64.5v3.2h0.7c0.3,0,0.5,0,0.6,0c0.2,0,0.3-0.1,0.4-0.2c0.1-0.1,0.2-0.3,0.3-0.5
		c0.1-0.2,0.1-0.5,0.1-0.9s0-0.7-0.1-0.9c-0.1-0.2-0.2-0.4-0.3-0.5c-0.1-0.1-0.3-0.2-0.5-0.2c-0.1,0-0.4,0-0.8,0H44.5z M43.6,63.7
		h1.8c0.4,0,0.7,0,0.9,0.1c0.3,0.1,0.5,0.2,0.7,0.4c0.2,0.2,0.4,0.5,0.5,0.8c0.1,0.3,0.2,0.7,0.2,1.1c0,0.4,0,0.7-0.1,1
		c-0.1,0.4-0.3,0.6-0.5,0.9c-0.2,0.2-0.4,0.3-0.7,0.4c-0.2,0.1-0.5,0.1-0.9,0.1h-1.8V63.7z"/>
</g>
</svg>
