<svg version="1.1" id="Warstwa_1" xmlns="http://www.w3.org/2000/svg" xmlns:xlink="http://www.w3.org/1999/xlink" x="0" y="0" viewBox="0 0 303.7 79.7" xml:space="preserve"><path d="M249.3 56.7c5.4 3.3 11.2 4.9 17.6 4.9 3.5 0 6.5-.8 9.2-2.3 2.7-1.5 4.1-3.4 4.3-5.7.2-2.2-.7-3.8-2.7-5-2-1.2-4.9-2.1-8.7-3-2.8-.7-5.2-1.3-7.2-1.9-2-.6-4.2-1.4-6.4-2.5-2.3-1.1-4.1-2.4-5.4-3.7-1.4-1.4-2.4-3.1-3.3-5.2-.8-2.1-1.1-4.5-.8-7.1.6-6 3.5-10.7 8.6-14.1 5.1-3.3 11.1-5 17.9-5 9 0 16.8 2.3 23.4 7l-9.8 9c-4.5-2.2-9.5-3.4-14.8-3.4-2.4 0-4.8.5-7.1 1.4-2.3 1-3.6 2.6-3.8 4.9-.2 2 .6 3.5 2.5 4.5 1.9 1.1 4.9 2 9 2.9 16.4 3.7 24.1 10.8 23.1 21.1-.7 6.7-3.9 11.7-9.6 15.3-5.7 3.5-12.3 5.3-19.6 5.3-10.6 0-19.1-2.9-25.7-8.8l9.3-8.6zm-63.8 16.5l6.5-66h49.3l-1.2 12.3h-35l-1.4 13.4h30L220.4 45h-17.9l-2.7 28.2zm-45.8 0l5.3-53.7h-22.4l1.2-12.3h59l-1.2 12.3h-22.4l-5.3 53.7zm-45.8 0l6.4-66h14.3l-6.5 66z" fill="#23356d"/><defs><path id="SVGID_1_" d="M56.9 7.3h24l-2.3 24h-24z"/></defs><clipPath id="SVGID_2_"><use xlink:href="#SVGID_1_" overflow="visible"/></clipPath><linearGradient id="SVGID_3_" gradientUnits="userSpaceOnUse" x1="56.563" y1="24.903" x2="78.894" y2="13.723"><stop offset="0" stop-color="#284899"/><stop offset="1" stop-color="#23356d"/></linearGradient><path clip-path="url(#SVGID_2_)" fill="url(#SVGID_3_)" d="M54.6 7.3h26.3v24H54.6z"/><defs><path id="SVGID_4_" d="M40.6 73.3H8.5l3.1-32.1h32z"/></defs><clipPath id="SVGID_5_"><use xlink:href="#SVGID_4_" overflow="visible"/></clipPath><linearGradient id="SVGID_6_" gradientUnits="userSpaceOnUse" x1="41.004" y1="49.764" x2="11.174" y2="64.704"><stop offset="0" stop-color="#284899"/><stop offset="1" stop-color="#23356d"/></linearGradient><path clip-path="url(#SVGID_5_)" fill="url(#SVGID_6_)" d="M8.5 41.2h35.1v32H8.5z"/><defs><path id="SVGID_7_" d="M45.5 41.2h32.1l-3.1 32.1h-32z"/></defs><clipPath id="SVGID_8_"><use xlink:href="#SVGID_7_" overflow="visible"/></clipPath><linearGradient id="SVGID_9_" gradientUnits="userSpaceOnUse" x1="69.683" y1="69.052" x2="50.343" y2="45.413"><stop offset="0" stop-color="#82aadb"/><stop offset=".01" stop-color="#82aadb"/><stop offset="1" stop-color="#a7bfe4"/></linearGradient><path clip-path="url(#SVGID_8_)" fill="url(#SVGID_9_)" d="M42.5 41.2h35.1v32H42.5z"/><defs><path id="SVGID_10_" d="M43.8 39.4h-32l3.1-32.1h32z"/></defs><clipPath id="SVGID_11_"><use xlink:href="#SVGID_10_" overflow="visible"/></clipPath><linearGradient id="SVGID_12_" gradientUnits="userSpaceOnUse" x1="19.682" y1="11.524" x2="39.032" y2="35.154"><stop offset="0" stop-color="#82aadb"/><stop offset=".01" stop-color="#82aadb"/><stop offset="1" stop-color="#a7bfe4"/></linearGradient><path clip-path="url(#SVGID_11_)" fill="url(#SVGID_12_)" d="M11.8 7.3h35.1v32H11.8z"/></svg>