<svg xmlns="http://www.w3.org/2000/svg" width="127.217" height="17.199" viewBox="0 0 127.217 17.199">
  <g id="logo" transform="translate(0 -0.5)">
    <path id="Path_255" data-name="Path 255" d="M284.822,41.4a3.013,3.013,0,0,0-1.851.611A2.337,2.337,0,0,0,282,43.664h5.32a2.408,2.408,0,0,0-.809-1.689A2.6,2.6,0,0,0,284.822,41.4Z" transform="translate(-231.321 -33.55)" fill="none"/>
    <path id="Path_256" data-name="Path 256" d="M354.818,41.98a.873.873,0,0,0-.126-.054h0a1.129,1.129,0,0,0-.126-.036h0a1.148,1.148,0,0,0-.126-.036h-.018c-.036,0-.072-.018-.108-.018h-.036c-.036,0-.054-.018-.108-.018h-.036a.108.108,0,0,1-.072-.018h-.27a2.648,2.648,0,0,0-2.049.988,3.677,3.677,0,0,0-.845,2.48,3.5,3.5,0,0,0,.881,2.426,1.089,1.089,0,0,0,.144.144l.018.018a.908.908,0,0,1,.144.126h0a2.651,2.651,0,0,0,3.756-.288,3.508,3.508,0,0,0,.809-2.426,3.81,3.81,0,0,0-.809-2.48A3.944,3.944,0,0,0,354.818,41.98Z" transform="translate(-287.838 -33.878)" fill="none"/>
    <path id="Path_257" data-name="Path 257" d="M613.3,41.9a2.756,2.756,0,0,0-2.157.952A3.575,3.575,0,0,0,610.3,45.3a3.491,3.491,0,0,0,.845,2.444,2.766,2.766,0,0,0,2.157.935,2.826,2.826,0,0,0,2.156-.935A3.574,3.574,0,0,0,616.3,45.3a3.49,3.49,0,0,0-.845-2.444A2.7,2.7,0,0,0,613.3,41.9Z" transform="translate(-500.621 -33.96)" fill="none"/>
    <path id="Path_258" data-name="Path 258" d="M425.3,41.9a2.756,2.756,0,0,0-2.157.952A3.576,3.576,0,0,0,422.3,45.3a3.491,3.491,0,0,0,.845,2.444,2.767,2.767,0,0,0,2.157.935,2.827,2.827,0,0,0,2.157-.935A3.575,3.575,0,0,0,428.3,45.3a3.491,3.491,0,0,0-.845-2.444A2.756,2.756,0,0,0,425.3,41.9Z" transform="translate(-346.407 -33.96)" fill="none"/>
    <g id="Group_7" data-name="Group 7" transform="translate(0 0.5)">
      <path id="Path_259" data-name="Path 259" d="M25.088,11.822a2.839,2.839,0,0,1-.737,2.139,2.4,2.4,0,0,1-1.761.737c-1.366,0-2.049-.935-2.049-2.822V5.244H17.36a6.573,6.573,0,0,0-2.5.341,6.145,6.145,0,0,0-1.635,1.276v-1.6H9.866V13.35l-.144-.323a5.3,5.3,0,0,1-2.588,1.635,1.111,1.111,0,0,1-.845-.4,1.578,1.578,0,0,1-.359-1.1V7.689H8.86V5.244H5.913V.5L2.5,2.351V5.244H1.078L0,7.689H2.5v5.625a4.171,4.171,0,0,0,1.2,3.163,4.094,4.094,0,0,0,2.965,1.15,6.643,6.643,0,0,0,3.181-1.456v1.276h3.379v-5.3a4.866,4.866,0,0,1,.737-2.839,2.581,2.581,0,0,1,2.264-1.078h1.06l-.162,4.4a4.879,4.879,0,0,0,1.348,3.738,4.809,4.809,0,0,0,3.361,1.258,3.812,3.812,0,0,0,3.253-1.779v1.6H28.5V5.244H25.088Z" transform="translate(0 -0.5)" fill="#07203b"/>
    </g>
    <g id="Group_8" data-name="Group 8" transform="translate(28.7 5.083)">
      <path id="Path_260" data-name="Path 260" d="M168.56,32a5.959,5.959,0,0,0-1.168-.593c-.323-.126-.881-.323-1.635-.557a9.826,9.826,0,0,1-1.653-.629.82.82,0,0,1-.5-.755c0-.575.521-.845,1.564-.845a5.43,5.43,0,0,1,3.145,1.1l1.276-2.264a7.613,7.613,0,0,0-4.3-1.456,5.353,5.353,0,0,0-3.486,1.078,3.38,3.38,0,0,0-1.348,2.768,2.808,2.808,0,0,0,1.366,2.552,7.373,7.373,0,0,0,1.2.647,13.919,13.919,0,0,0,1.528.539,5.6,5.6,0,0,1,1.528.683,1.006,1.006,0,0,1,.539.791.848.848,0,0,1-.377.7,1.733,1.733,0,0,1-1.024.252,6.435,6.435,0,0,1-4.026-1.474L159.7,36.657a8.8,8.8,0,0,0,2.642,1.456,9,9,0,0,0,2.822.5,5.109,5.109,0,0,0,3.361-1.1,3.567,3.567,0,0,0,1.312-2.893A2.81,2.81,0,0,0,168.56,32Z" transform="translate(-159.7 -26)" fill="#07203b"/>
    </g>
    <g id="Group_9" data-name="Group 9" transform="translate(38.279 0.5)">
      <path id="Path_261" data-name="Path 261" d="M232.409,6.556a6.517,6.517,0,0,0-8.59.18,5.956,5.956,0,0,0-1.851,4.583,7.318,7.318,0,0,0,.306,2.139,3.786,3.786,0,0,1-2.139,1.186,1.111,1.111,0,0,1-.845-.4,1.578,1.578,0,0,1-.359-1.1V7.689h2.929V5.244h-2.929V.5l-3.415,1.851V5.244h-1.438L213,7.689h2.516v5.625a4.171,4.171,0,0,0,1.2,3.163,4.1,4.1,0,0,0,2.965,1.15,7.058,7.058,0,0,0,3.954-1.869l-.018-.018c.054.054.108.126.162.18a6.311,6.311,0,0,0,4.565,1.707,6.765,6.765,0,0,0,4.816-1.941l-1.887-2.067a3.929,3.929,0,0,1-2.929,1.2,3.361,3.361,0,0,1-1.977-.629,2.321,2.321,0,0,1-1.024-1.635h8.842V10.726A5.364,5.364,0,0,0,232.409,6.556Zm-6.991,3.576a2.361,2.361,0,0,1,.97-1.653,3.013,3.013,0,0,1,1.851-.611,2.565,2.565,0,0,1,1.707.593,2.481,2.481,0,0,1,.809,1.689h-5.338v-.018Z" transform="translate(-213 -0.5)" fill="#07203b"/>
    </g>
    <g id="Group_10" data-name="Group 10" transform="translate(72.479 5.047)">
      <path id="Path_262" data-name="Path 262" d="M409.716,25.8a6.262,6.262,0,0,0-6.416,6.326,6.06,6.06,0,0,0,1.833,4.475,6.216,6.216,0,0,0,4.583,1.815A6.329,6.329,0,0,0,414.3,27.633,6.149,6.149,0,0,0,409.716,25.8Zm2.174,8.734a2.766,2.766,0,0,1-2.156.935,2.827,2.827,0,0,1-2.157-.935,3.576,3.576,0,0,1-.845-2.444,3.49,3.49,0,0,1,.845-2.444,2.918,2.918,0,0,1,4.313,0,3.958,3.958,0,0,1,0,4.888Z" transform="translate(-403.3 -25.8)" fill="#07203b"/>
    </g>
    <g id="Group_11" data-name="Group 11" transform="translate(85.634 5.047)">
      <path id="Path_263" data-name="Path 263" d="M483.006,35.361a3.272,3.272,0,0,1-2.246-.845,3.127,3.127,0,0,1-.953-2.426,3.127,3.127,0,0,1,.953-2.426,3.3,3.3,0,0,1,2.282-.881,4.175,4.175,0,0,1,1.689.377,4.045,4.045,0,0,1,1.438,1.1l1.761-2.318a6.459,6.459,0,0,0-2.354-1.6,7.084,7.084,0,0,0-2.642-.539,6.492,6.492,0,0,0-4.529,1.761,5.9,5.9,0,0,0-1.9,4.565,5.912,5.912,0,0,0,1.887,4.547,6.592,6.592,0,0,0,4.6,1.725,6.976,6.976,0,0,0,5.086-2.444l-2.013-2.3A3.918,3.918,0,0,1,483.006,35.361Z" transform="translate(-476.5 -25.8)" fill="#07203b"/>
    </g>
    <g id="Group_12" data-name="Group 12" transform="translate(97.045 0.5)">
      <path id="Path_264" data-name="Path 264" d="M555.635,5.047a6.262,6.262,0,0,0-6.416,6.326,6.411,6.411,0,0,0,.306,1.977,7.952,7.952,0,0,1-2.39,1.33,1.111,1.111,0,0,1-.845-.4,1.578,1.578,0,0,1-.359-1.1v-5.5h2.929V5.244h-2.911V.5l-3.415,1.851V5.244H541.1L540,7.689h2.516v5.625a4.172,4.172,0,0,0,1.2,3.163,4.1,4.1,0,0,0,2.965,1.15,8.645,8.645,0,0,0,4.205-2.013,1.679,1.679,0,0,0,.18.18,6.216,6.216,0,0,0,4.583,1.815,6.148,6.148,0,0,0,4.583-1.815,6,6,0,0,0,1.815-4.439,6.233,6.233,0,0,0-6.416-6.308Zm2.175,8.734a2.767,2.767,0,0,1-2.157.935,2.827,2.827,0,0,1-2.157-.935,3.576,3.576,0,0,1-.845-2.444,3.49,3.49,0,0,1,.845-2.444,2.918,2.918,0,0,1,4.313,0,3.576,3.576,0,0,1,.845,2.444A3.46,3.46,0,0,1,557.81,13.781Z" transform="translate(-540 -0.5)" fill="#07203b"/>
    </g>
    <g id="Group_13" data-name="Group 13" transform="translate(120.208 5.047)">
      <path id="Path_265" data-name="Path 265" d="M669.814,26.339a6.148,6.148,0,0,0-1.636,1.276v-1.6H664.8v12.2h3.379V32.9a4.865,4.865,0,0,1,.737-2.839,2.581,2.581,0,0,1,2.264-1.078h.629V25.8A4.11,4.11,0,0,0,669.814,26.339Z" transform="translate(-664.8 -25.8)" fill="#07203b"/>
    </g>
    <g id="Group_14" data-name="Group 14" transform="translate(59.647 0.626)">
      <path id="Path_266" data-name="Path 266" d="M340.976,7.166a5.545,5.545,0,0,0-.755-.7,1.088,1.088,0,0,1-.18-.126c-.018-.018-.036-.018-.054-.036l-.144-.072c-.018-.018-.036-.018-.054-.036a1.964,1.964,0,0,0-.2-.108h0a1.075,1.075,0,0,1-.2-.108c-.018,0-.036-.018-.054-.018l-.162-.054c-.018,0-.036-.018-.054-.018a1.012,1.012,0,0,1-.216-.072h0l-.216-.054c-.018,0-.036-.018-.054-.018-.054-.018-.126-.018-.162-.036a.066.066,0,0,1-.054-.018c-.072-.018-.162-.018-.234-.036h0a1.025,1.025,0,0,0-.234-.018h-.072a.611.611,0,0,1-.18-.018H337.4a5.115,5.115,0,0,0-3.846,1.725,6.3,6.3,0,0,0-1.653,4.475,6.464,6.464,0,0,0,1.689,4.565,2.075,2.075,0,0,0,.2.2l.072.072a1.171,1.171,0,0,0,.144.126.277.277,0,0,0,.108.072c.036.036.072.054.126.108.036.018.054.054.108.072s.054.054.108.072.072.054.126.072.054.036.108.054.072.054.126.072a.093.093,0,0,0,.072.036,4.649,4.649,0,0,0,2.642.791A4.4,4.4,0,0,0,341.1,16.35v1.6h3.379V1.2L341.1,3.051V7.184h-.126Zm-.773,7.189a2.553,2.553,0,0,1-2.013.935,2.656,2.656,0,0,1-1.743-.647h0a.9.9,0,0,1-.144-.126l-.018-.018-.144-.144a3.388,3.388,0,0,1-.881-2.426,3.645,3.645,0,0,1,.845-2.48,2.564,2.564,0,0,1,2.049-.988h.27a.108.108,0,0,1,.072.018h.036c.036,0,.054.018.108.018h.036c.036,0,.072.018.108.018h.018a1.149,1.149,0,0,0,.126.036h0a1.152,1.152,0,0,0,.126.036h0a.883.883,0,0,0,.126.054,2.657,2.657,0,0,1,.988.773,3.682,3.682,0,0,1,.809,2.48A3.263,3.263,0,0,1,340.2,14.355Z" transform="translate(-331.9 -1.2)" fill="#07203b"/>
    </g>
  </g>
</svg>
